<svg width="219" height="179" viewBox="0 0 219 179" fill="none" xmlns="http://www.w3.org/2000/svg">
<rect width="219" height="178.513" rx="6.44118" fill="#508C9B"/>
<path d="M0 138.945H219V172.071C219 175.629 216.116 178.513 212.559 178.513H6.44118C2.88382 178.513 0 175.629 0 172.071V138.945Z" fill="black"/>
<rect x="14.7227" y="23.0042" width="109.5" height="22.084" fill="#134B70"/>
<rect x="82.8149" y="57.9706" width="109.5" height="22.084" fill="#EEEEEE"/>
<rect x="14.7227" y="92.0168" width="109.5" height="22.084" fill="#134B70"/>
<path d="M12.626 152.534V151.46H20.1212V152.534H16.9787V161.454H15.7686V152.534H12.626ZM23.0185 161.63C22.5436 161.63 22.1125 161.54 21.7254 161.361C21.3383 161.179 21.0309 160.917 20.8032 160.576C20.5754 160.231 20.4616 159.814 20.4616 159.326C20.4616 158.897 20.5462 158.549 20.7153 158.282C20.8845 158.012 21.1106 157.801 21.3936 157.648C21.6766 157.495 21.9889 157.381 22.3305 157.306C22.6753 157.228 23.0218 157.166 23.3699 157.121C23.8253 157.062 24.1945 157.018 24.4776 156.989C24.7638 156.956 24.972 156.903 25.1022 156.828C25.2355 156.753 25.3022 156.623 25.3022 156.438V156.399C25.3022 155.917 25.1705 155.543 24.907 155.276C24.6467 155.01 24.2515 154.876 23.7212 154.876C23.1714 154.876 22.7404 154.996 22.4281 155.237C22.1158 155.478 21.8962 155.735 21.7693 156.008L20.6763 155.618C20.8715 155.162 21.1317 154.808 21.457 154.554C21.7856 154.297 22.1434 154.118 22.5306 154.017C22.9209 153.913 23.3048 153.861 23.6822 153.861C23.9229 153.861 24.1994 153.89 24.5117 153.949C24.8273 154.004 25.1314 154.12 25.4242 154.295C25.7203 154.471 25.9659 154.736 26.161 155.091C26.3562 155.445 26.4538 155.92 26.4538 156.516V161.454H25.3022V160.439H25.2437C25.1656 160.602 25.0355 160.776 24.8533 160.961C24.6711 161.147 24.4288 161.304 24.1262 161.434C23.8237 161.565 23.4545 161.63 23.0185 161.63ZM23.1942 160.595C23.6496 160.595 24.0335 160.506 24.3458 160.327C24.6614 160.148 24.8988 159.917 25.0582 159.634C25.2209 159.351 25.3022 159.053 25.3022 158.741V157.687C25.2534 157.745 25.1461 157.799 24.9802 157.848C24.8175 157.893 24.6288 157.934 24.4141 157.97C24.2027 158.002 23.9961 158.032 23.7944 158.058C23.596 158.08 23.4349 158.1 23.3113 158.116C23.012 158.155 22.7323 158.219 22.472 158.307C22.215 158.391 22.0068 158.52 21.8474 158.692C21.6913 158.861 21.6132 159.092 21.6132 159.385C21.6132 159.785 21.7612 160.088 22.0572 160.293C22.3565 160.494 22.7355 160.595 23.1942 160.595ZM28.5558 161.454V153.959H29.7074V161.454H28.5558ZM29.1413 152.71C28.9168 152.71 28.7233 152.633 28.5606 152.48C28.4012 152.327 28.3215 152.144 28.3215 151.929C28.3215 151.714 28.4012 151.53 28.5606 151.377C28.7233 151.225 28.9168 151.148 29.1413 151.148C29.3658 151.148 29.5577 151.225 29.7171 151.377C29.8798 151.53 29.9611 151.714 29.9611 151.929C29.9611 152.144 29.8798 152.327 29.7171 152.48C29.5577 152.633 29.3658 152.71 29.1413 152.71ZM32.9682 151.46V161.454H31.8166V151.46H32.9682ZM39.0983 161.454V151.46H42.5921C43.2883 151.46 43.8625 151.581 44.3147 151.821C44.7669 152.059 45.1036 152.379 45.3248 152.783C45.546 153.183 45.6566 153.627 45.6566 154.115C45.6566 154.544 45.5801 154.899 45.4272 155.179C45.2776 155.458 45.0792 155.68 44.8319 155.842C44.5879 156.005 44.3228 156.125 44.0365 156.203V156.301C44.3423 156.321 44.6497 156.428 44.9588 156.623C45.2678 156.818 45.5265 157.098 45.7347 157.462C45.9429 157.827 46.047 158.272 46.047 158.799C46.047 159.3 45.9331 159.751 45.7054 160.151C45.4777 160.551 45.1182 160.868 44.627 161.103C44.1358 161.337 43.4965 161.454 42.7093 161.454H39.0983ZM40.3085 160.38H42.7093C43.4998 160.38 44.0609 160.228 44.3927 159.922C44.7278 159.613 44.8954 159.239 44.8954 158.799C44.8954 158.461 44.8091 158.149 44.6367 157.862C44.4643 157.573 44.2187 157.342 43.8999 157.17C43.5811 156.994 43.2037 156.906 42.7678 156.906H40.3085V160.38ZM40.3085 155.852H42.5531C42.9175 155.852 43.246 155.78 43.5388 155.637C43.8348 155.494 44.0691 155.293 44.2415 155.032C44.4171 154.772 44.505 154.466 44.505 154.115C44.505 153.676 44.3521 153.303 44.0463 152.997C43.7405 152.688 43.2558 152.534 42.5921 152.534H40.3085V155.852ZM49.0309 151.46V161.454H47.8793V151.46H49.0309ZM55.8637 158.389V153.959H57.0153V161.454H55.8637V160.185H55.7856C55.6099 160.566 55.3366 160.89 54.9658 161.156C54.5949 161.42 54.1265 161.552 53.5604 161.552C53.092 161.552 52.6756 161.449 52.3112 161.244C51.9469 161.036 51.6606 160.724 51.4524 160.307C51.2442 159.888 51.1401 159.359 51.1401 158.721V153.959H52.2917V158.643C52.2917 159.19 52.4446 159.626 52.7504 159.951C53.0595 160.276 53.4531 160.439 53.9313 160.439C54.2176 160.439 54.5087 160.366 54.8048 160.219C55.104 160.073 55.3545 159.849 55.5562 159.546C55.7612 159.243 55.8637 158.858 55.8637 158.389ZM62.267 161.61C61.5448 161.61 60.9218 161.451 60.3981 161.132C59.8776 160.81 59.4758 160.361 59.1928 159.785C58.913 159.206 58.7732 158.533 58.7732 157.765C58.7732 156.997 58.913 156.321 59.1928 155.735C59.4758 155.146 59.8695 154.687 60.3737 154.359C60.8812 154.027 61.4733 153.861 62.1499 153.861C62.5403 153.861 62.9258 153.926 63.3064 154.056C63.687 154.186 64.0335 154.398 64.3458 154.691C64.6581 154.98 64.9069 155.364 65.0923 155.842C65.2778 156.321 65.3705 156.909 65.3705 157.609V158.097H59.5929V157.101H64.1994C64.1994 156.678 64.1148 156.301 63.9456 155.969C63.7797 155.637 63.5422 155.375 63.2332 155.184C62.9274 154.992 62.5663 154.896 62.1499 154.896C61.6912 154.896 61.2943 155.01 60.9593 155.237C60.6274 155.462 60.3721 155.754 60.1931 156.116C60.0142 156.477 59.9248 156.864 59.9248 157.277V157.941C59.9248 158.507 60.0224 158.986 60.2175 159.38C60.416 159.77 60.6909 160.068 61.0422 160.273C61.3935 160.475 61.8018 160.576 62.267 160.576C62.5696 160.576 62.8428 160.533 63.0868 160.449C63.334 160.361 63.5471 160.231 63.726 160.058C63.905 159.883 64.0432 159.665 64.1408 159.404L65.2534 159.717C65.1363 160.094 64.9394 160.426 64.6629 160.712C64.3864 160.995 64.0448 161.216 63.6382 161.376C63.2316 161.532 62.7745 161.61 62.267 161.61Z" fill="white"/>
</svg>
